/* XPM */
static char *_613654339881[] = {
/* columns rows colors chars-per-pixel */
"64 64 56 1 ",
"  c none ",
". c #28200C",
"X c #382C14",
"o c #202020",
"O c #2C2C2C",
"+ c gray22",
"@ c #403018",
"# c #483818",
"$ c #543C1C",
"% c #5C4020",
"& c #6C4824",
"* c #744C28",
"= c #000040",
"- c #00004C",
"; c #000064",
": c #000070",
"> c #00007C",
", c #500050",
"< c #484848",
"1 c gray33",
"2 c #646464",
"3 c gray44",
"4 c #7C7C7C",
"5 c #80502C",
"6 c #885830",
"7 c #905C34",
"8 c #9C6038",
"9 c #A0643C",
"0 c #A86840",
"q c #B47044",
"w c #BC7848",
"e c #C87C4C",
"r c #D08050",
"t c #DC8854",
"y c #E88C58",
"u c #F0945C",
"i c #FC9C60",
"p c #FCA470",
"a c #000088",
"s c #000098",
"d c #0000A8",
"f c #0000B0",
"g c #0000D4",
"h c #0000E0",
"j c #0004FC",
"k c magenta",
"l c gray55",
"z c #989898",
"x c gray66",
"c c #FCB080",
"v c #FCB890",
"b c #FCBC9C",
"n c #FCD4BC",
"m c #C0C0C0",
"M c #D0D0D0",
"N c #ECECEC",
/* pixels */
"                                                                ",
"                                                                ",
"                                                                ",
"                                                                ",
"                                                                ",
"                                                                ",
"                                                                ",
"                                                                ",
"                                                                ",
"                                                                ",
"                                                                ",
"                                                                ",
"                                                                ",
"                                                                ",
"                                                                ",
"                                                                ",
"                                                                ",
"                                                                ",
"                               xxl41<                           ",
"                              xMl11<+<                          ",
"                              ll211<+o                          ",
"                              z4311<+o                          ",
"                             zmNml321Oo                         ",
"                            zzOOOOOOO Oo                        ",
"                              *0jcwj0*                          ",
"                              #ubo0bu#                          ",
"                               8oNoy#                           ",
"                           py   z zo  @70                       ",
"                        vpe95@m 141 m@0058r                     ",
"                       0ppuipp6n O w  iiii8q                    ",
"                       wppiip8cwqptww8%rrwwq                    ",
"                       wvy0rw&ccqvpww8%0007*                    ",
"                        w09866%6660..  %***X                    ",
"                        %%%%#Xoo. ###q6#.XX                     ",
"                          5..@$ooo<rqq6#.                       ",
"                           6#.@5ooo<q96%X                       ",
"                           e6$#@5 ooo6%X                        ",
"                           eu8$@@ 6   %.                        ",
"                           1<+ooll1ooo                          ",
"                           1<+oo111ooo                          ",
"                           eu8r**@**X&%.                        ",
"                          euutrq*,***5&#X                       ",
"                          euurrq*,*977&#X                       ",
"                         euuurrq,,$9775#X                       ",
"                         euurrq*,.,*765#X.                      ",
"                         76**@@ .X.      .                      ",
"                         qtyyw%@. .%9wt95.                      ",
"                        qeyiiw5@. .%wtiq9@                      ",
"                        qeiciw6.   .7rtiq@                      ",
"                        qtcc*w%.   .&*8ii%@                     ",
"                        qcrwu*.     .wit99@                     ",
"                       qticw#*@.   .%%9ti9%.                    ",
"                       qticw7#.     .7wtt9%.                    ",
"                       qyiiw6%.     .7rrr9%.                    ",
"                       7www**@      .%77%%..                    ",
"                        ooooo         oooo                      ",
"                        >>=oo         d:==                      ",
"                        d-=oo         ;d-=                      ",
"                        h>=oo         odh=o                     ",
"                        d-=o           ;d-o                     ",
"                       ;d-o            od:=                     ",
"                      Odg>-o          oagff:                    ",
"                     Od::=-o           ds:==o                   ",
"                     oooooo             ooooo                   "
};
